<svg xmlns="http://www.w3.org/2000/svg" width="200.593" height="35.316" viewBox="0 0 200.593 35.316">
  <defs>
    <style>
      .cls-1 {
        fill: #8cb7ea;
      }
    </style>
  </defs>
  <title>Ресурс 4</title>
  <g id="Слой_2" data-name="Слой 2">
    <g id="Слой_1-2" data-name="Слой 1">
      <g>
        <path class="cls-1" d="M40.284,3.132l-8.244,25.2H25.776L20.232,11.268,14.508,28.332H8.28L0,3.132H6.048l5.688,17.712,5.94-17.712h5.4l5.76,17.856L34.7,3.132Z"/>
        <path class="cls-1" d="M45.414,5.364a2.917,2.917,0,0,1-.972-2.232A2.92,2.92,0,0,1,45.414.9a3.56,3.56,0,0,1,2.52-.9,3.653,3.653,0,0,1,2.52.864,2.77,2.77,0,0,1,.972,2.16,3.057,3.057,0,0,1-.972,2.322,3.522,3.522,0,0,1-2.52.918A3.56,3.56,0,0,1,45.414,5.364Zm-.289,3.6h5.617V28.332H45.125Z"/>
        <path class="cls-1" d="M65.542,20.736l-2.7,2.664v4.932H57.225V1.62h5.616V16.74l8.208-7.776h6.7l-8.064,8.208,8.784,11.16h-6.8Z"/>
        <path class="cls-1" d="M82.73,5.364a2.92,2.92,0,0,1-.971-2.232A2.923,2.923,0,0,1,82.73.9,3.562,3.562,0,0,1,85.25,0a3.654,3.654,0,0,1,2.521.864,2.773,2.773,0,0,1,.972,2.16,3.061,3.061,0,0,1-.972,2.322,3.523,3.523,0,0,1-2.521.918A3.562,3.562,0,0,1,82.73,5.364Zm-.288,3.6h5.617V28.332H82.442Z"/>
        <path class="cls-1" d="M110.9,9.918a8.925,8.925,0,0,1,3.474,3.492,10.542,10.542,0,0,1,1.26,5.238,10.54,10.54,0,0,1-1.26,5.238,8.918,8.918,0,0,1-3.474,3.492,9.87,9.87,0,0,1-4.914,1.242,7.48,7.48,0,0,1-5.832-2.34v9.036H94.542V8.964h5.364V11.2a7.452,7.452,0,0,1,6.084-2.52A9.87,9.87,0,0,1,110.9,9.918Zm-2.34,12.636a5.435,5.435,0,0,0,1.386-3.906,5.435,5.435,0,0,0-1.386-3.906,5.041,5.041,0,0,0-7.092,0,5.435,5.435,0,0,0-1.386,3.906,5.435,5.435,0,0,0,1.386,3.906,5.041,5.041,0,0,0,7.092,0Z"/>
        <path class="cls-1" d="M139.815,20.232H125.164a4.555,4.555,0,0,0,1.871,2.844,6.2,6.2,0,0,0,3.673,1.044,7.434,7.434,0,0,0,2.681-.45,6.5,6.5,0,0,0,2.178-1.422l2.988,3.24q-2.736,3.132-7.992,3.132a12.635,12.635,0,0,1-5.795-1.278,9.365,9.365,0,0,1-3.889-3.546,9.77,9.77,0,0,1-1.368-5.148,9.9,9.9,0,0,1,1.35-5.13,9.458,9.458,0,0,1,3.708-3.564A11.48,11.48,0,0,1,134.991,9.9a8.934,8.934,0,0,1,3.618,3.51,10.469,10.469,0,0,1,1.314,5.31Q139.923,18.828,139.815,20.232ZM126.675,14a4.6,4.6,0,0,0-1.584,2.952h9.54a4.644,4.644,0,0,0-1.584-2.934,4.733,4.733,0,0,0-3.168-1.1A4.838,4.838,0,0,0,126.675,14Z"/>
        <path class="cls-1" d="M164.929,1.62V28.332h-5.364V26.1a7.406,7.406,0,0,1-6.048,2.52,10.057,10.057,0,0,1-4.95-1.224,8.758,8.758,0,0,1-3.474-3.492,10.631,10.631,0,0,1-1.26-5.256,10.634,10.634,0,0,1,1.26-5.256A8.764,8.764,0,0,1,148.567,9.9a10.057,10.057,0,0,1,4.95-1.224,7.369,7.369,0,0,1,5.8,2.34V1.62Zm-6.912,20.934a5.394,5.394,0,0,0,1.4-3.906,5.394,5.394,0,0,0-1.4-3.906,5.041,5.041,0,0,0-7.092,0,5.394,5.394,0,0,0-1.4,3.906,5.394,5.394,0,0,0,1.4,3.906,5.041,5.041,0,0,0,7.092,0Z"/>
        <path class="cls-1" d="M171.664,5.364a2.921,2.921,0,0,1-.972-2.232A2.924,2.924,0,0,1,171.664.9a3.564,3.564,0,0,1,2.521-.9A3.649,3.649,0,0,1,176.7.864a2.767,2.767,0,0,1,.972,2.16,3.053,3.053,0,0,1-.972,2.322,3.518,3.518,0,0,1-2.519.918A3.564,3.564,0,0,1,171.664,5.364Zm-.288,3.6h5.616V28.332h-5.616Z"/>
        <path class="cls-1" d="M198.182,10.818q2.41,2.142,2.411,6.462V28.332h-5.256V25.92q-1.584,2.7-5.9,2.7a9.165,9.165,0,0,1-3.871-.756,5.768,5.768,0,0,1-2.5-2.088,5.427,5.427,0,0,1-.865-3.024,5.046,5.046,0,0,1,2.034-4.248q2.034-1.548,6.283-1.548h4.464a3.584,3.584,0,0,0-1.117-2.826,4.914,4.914,0,0,0-3.347-.99,9.766,9.766,0,0,0-3.042.486,8.026,8.026,0,0,0-2.538,1.314l-2.017-3.924a12.164,12.164,0,0,1,3.8-1.728,17.015,17.015,0,0,1,4.555-.612Q195.77,8.676,198.182,10.818Zm-4.788,13.356a3.653,3.653,0,0,0,1.584-1.962v-1.98h-3.853q-3.456,0-3.456,2.268a2.017,2.017,0,0,0,.847,1.71,3.806,3.806,0,0,0,2.321.63A4.9,4.9,0,0,0,193.394,24.174Z"/>
      </g>
    </g>
  </g>
</svg>
