<svg xmlns="http://www.w3.org/2000/svg" width="66" height="66" viewBox="0 0 66 66">
  <defs>
    <style>
      .cls-1 {
        fill: #94c0ff;
      }

      .cls-2 {
        fill: #070707;
      }
    </style>
  </defs>
  <title>Ресурс 2</title>
  <g id="Слой_2" data-name="Слой 2">
    <g id="Слой_1-2" data-name="Слой 1">
      <rect class="cls-1" width="66" height="66" rx="33"/>
      <g>
        <polygon class="cls-2" points="42.765 22.275 40.375 29.545 36.895 40.125 34.765 33.525 31.135 22.275 25.735 22.275 19.795 39.985 14.105 22.275 8.055 22.275 16.335 47.475 22.565 47.475 28.295 30.405 33.835 47.475 40.095 47.475 40.375 46.615 42.345 40.595 45.475 31.055 48.345 22.275 42.765 22.275"/>
        <path class="cls-2" d="M30.725,13.955a3.637,3.637,0,0,0-2.52-.86,3.535,3.535,0,0,0-2.52.9,3.027,3.027,0,0,0,0,4.46,3.535,3.535,0,0,0,2.52.9,3.537,3.537,0,0,0,2.52-.92,3.07,3.07,0,0,0,.97-2.32A2.806,2.806,0,0,0,30.725,13.955Z"/>
        <path class="cls-2" d="M48.515,13.955A3.637,3.637,0,0,0,46,13.1a3.535,3.535,0,0,0-2.52.9,3.027,3.027,0,0,0,0,4.46,3.944,3.944,0,0,0,5.04-.02,3.07,3.07,0,0,0,.97-2.32A2.806,2.806,0,0,0,48.515,13.955Z"/>
        <polyline class="cls-2" points="42.724 39.439 49.195 47.475 56.005 47.475 44.768 33.209"/>
      </g>
    </g>
  </g>
</svg>
